<svg width="28" height="28" viewBox="0 0 28 28" fill="none" xmlns="http://www.w3.org/2000/svg">
<path d="M24.6341 1.04113e-10H3.3659C2.47322 -7.01563e-06 1.6171 0.354591 0.985872 0.985808C0.354642 1.61702 1.1225e-05 2.47315 0 3.36584V24.6341C5.61249e-06 25.5268 0.354627 26.3829 0.985855 27.0141C1.61708 27.6454 2.47321 28 3.3659 28H24.6341C25.5268 28 26.3829 27.6454 27.0141 27.0141C27.6454 26.3829 28 25.5268 28 24.6341V3.36584C28 2.47315 27.6454 1.61703 27.0141 0.985808C26.3829 0.354589 25.5268 -7.01561e-06 24.6341 1.04113e-10ZM20.6406 7.1804H18.2016C16.5363 7.1804 16.2122 7.96889 16.2122 9.13305V11.6015H20.1836L19.6679 15.4772H16.2048V25.5838C14.724 25.8616 13.2041 25.858 11.7247 25.5731V15.4772H8.54884V11.6015H11.7837V8.73524C11.7837 5.30878 14.1637 3.4373 17.2289 3.4373C18.7026 3.4373 20.2795 3.54787 20.6406 3.59936L20.6406 7.1804Z" fill="white"/>
</svg>
