<svg width="28" height="28" viewBox="0 0 28 28" fill="none" xmlns="http://www.w3.org/2000/svg">
<path d="M24.6341 1.04098e-10H3.3659C2.47321 -7.01563e-06 1.6171 0.354599 0.98587 0.985815C0.354642 1.61703 1.1225e-05 2.47315 0 3.36584V24.6341C5.61249e-06 25.5268 0.354643 26.3829 0.98587 27.0141C1.6171 27.6454 2.47321 28 3.3659 28H24.6341C25.5268 28 26.3829 27.6454 27.0141 27.0141C27.6454 26.3829 28 25.5268 28 24.6341V3.36584C28 2.47316 27.6454 1.61704 27.0141 0.985823C26.3829 0.354605 25.5268 -7.01561e-06 24.6341 1.04098e-10ZM14 21.4667C12.5232 21.4667 11.0796 21.0288 9.85173 20.2083C8.62384 19.3879 7.66685 18.2217 7.10172 16.8574C6.53658 15.493 6.3887 13.9917 6.6768 12.5433C6.9649 11.0949 7.67603 9.7645 8.72026 8.72026C9.76449 7.67603 11.0949 6.9649 12.5433 6.6768C13.9917 6.38869 15.493 6.53656 16.8574 7.10169C18.2217 7.66683 19.3878 8.62386 20.2083 9.85174C21.0287 11.0796 21.4667 12.5232 21.4667 14C21.4667 15.9803 20.68 17.8795 19.2797 19.2797C17.8794 20.68 15.9803 21.4667 14 21.4667ZM22.4 6.53333C22.0308 6.53333 21.6699 6.42385 21.3629 6.21874C21.0559 6.01363 20.8167 5.72209 20.6754 5.381C20.5341 5.03991 20.4972 4.6646 20.5692 4.3025C20.6412 3.9404 20.819 3.60779 21.08 3.34673C21.3411 3.08567 21.6737 2.90789 22.0358 2.83586C22.3979 2.76384 22.7732 2.80081 23.1143 2.94209C23.4554 3.08338 23.7469 3.32263 23.9521 3.6296C24.1572 3.93658 24.2667 4.29748 24.2667 4.66667C24.2667 5.16174 24.07 5.63653 23.7199 5.98659C23.3699 6.33666 22.8951 6.53333 22.4 6.53333Z" fill="white"/>
</svg>
