<svg width="29" height="28" viewBox="0 0 29 28" fill="none" xmlns="http://www.w3.org/2000/svg">
<path d="M25.1341 1.04113e-10H3.8659C2.97322 -7.01563e-06 2.1171 0.354591 1.48587 0.985808C0.854642 1.61702 0.500011 2.47315 0.5 3.36584V24.6341C0.500006 25.5268 0.854627 26.3829 1.48586 27.0141C2.11708 27.6454 2.97321 28 3.8659 28H25.1341C26.0268 28 26.8829 27.6454 27.5141 27.0141C28.1454 26.3829 28.5 25.5268 28.5 24.6341V3.36584C28.5 2.47315 28.1454 1.61703 27.5141 0.985808C26.8829 0.354589 26.0268 -7.01561e-06 25.1341 1.04113e-10ZM21.1406 7.1804H18.7016C17.0363 7.1804 16.7122 7.96889 16.7122 9.13305V11.6015H20.6836L20.1679 15.4772H16.7048V25.5838C15.224 25.8616 13.7041 25.858 12.2247 25.5731V15.4772H9.04884V11.6015H12.2837V8.73524C12.2837 5.30878 14.6637 3.4373 17.7289 3.4373C19.2026 3.4373 20.7795 3.54787 21.1406 3.59936L21.1406 7.1804Z" fill="white"/>
</svg>
