<svg width="29" height="28" viewBox="0 0 29 28" fill="none" xmlns="http://www.w3.org/2000/svg">
<path d="M25.1341 1.04098e-10H3.8659C2.97321 -7.01563e-06 2.1171 0.354599 1.48587 0.985815C0.854642 1.61703 0.500011 2.47315 0.5 3.36584V24.6341C0.500006 25.5268 0.854643 26.3829 1.48587 27.0141C2.1171 27.6454 2.97321 28 3.8659 28H25.1341C26.0268 28 26.8829 27.6454 27.5141 27.0141C28.1454 26.3829 28.5 25.5268 28.5 24.6341V3.36584C28.5 2.47316 28.1454 1.61704 27.5141 0.985823C26.8829 0.354605 26.0268 -7.01561e-06 25.1341 1.04098e-10ZM14.5 21.4667C13.0232 21.4667 11.5796 21.0288 10.3517 20.2083C9.12384 19.3879 8.16685 18.2217 7.60172 16.8574C7.03658 15.493 6.8887 13.9917 7.1768 12.5433C7.4649 11.0949 8.17603 9.7645 9.22026 8.72026C10.2645 7.67603 11.5949 6.9649 13.0433 6.6768C14.4917 6.38869 15.993 6.53656 17.3574 7.10169C18.7217 7.66683 19.8878 8.62386 20.7083 9.85174C21.5287 11.0796 21.9667 12.5232 21.9667 14C21.9667 15.9803 21.18 17.8795 19.7797 19.2797C18.3794 20.68 16.4803 21.4667 14.5 21.4667ZM22.9 6.53333C22.5308 6.53333 22.1699 6.42385 21.8629 6.21874C21.5559 6.01363 21.3167 5.72209 21.1754 5.381C21.0341 5.03991 20.9972 4.6646 21.0692 4.3025C21.1412 3.9404 21.319 3.60779 21.58 3.34673C21.8411 3.08567 22.1737 2.90789 22.5358 2.83586C22.8979 2.76384 23.2732 2.80081 23.6143 2.94209C23.9554 3.08338 24.2469 3.32263 24.4521 3.6296C24.6572 3.93658 24.7667 4.29748 24.7667 4.66667C24.7667 5.16174 24.57 5.63653 24.2199 5.98659C23.8699 6.33666 23.3951 6.53333 22.9 6.53333Z" fill="white"/>
</svg>
